<svg width="158" height="78" viewBox="0 0 158 78" fill="none" xmlns="http://www.w3.org/2000/svg">
<path d="M66.8846 5.62012H65.9507V74.9302H66.8846V5.62012Z" fill="white"/>
<path d="M19.6162 19.5931C21.8036 19.608 23.6763 21.533 23.6364 23.7316C23.5964 25.9351 21.464 27.9497 19.1967 27.9298C17.1092 27.9099 15.2814 25.97 15.2564 23.8211C15.2414 21.8165 17.239 19.4836 19.6162 19.5931Z" fill="white"/>
<path d="M38.7736 19.1754C35.8871 19.1754 34.5087 17.1708 34.4987 15.3055C34.4787 12.7239 36.0618 11.0575 38.6138 11.0923C41.2956 11.1321 42.9586 12.694 42.9236 15.3602C42.8936 17.6284 41.2057 19.2152 38.7736 19.1754Z" fill="white"/>
<path d="M55.4336 55.4767C55.6284 57.9887 53.1364 59.6849 51.1138 59.7695C48.9914 59.859 47.0437 57.8146 47.0587 55.7205C47.0737 53.4821 49.1711 51.5073 51.4484 51.4576C53.5908 51.4178 55.6533 53.4721 55.4336 55.4767Z" fill="white"/>
<path d="M15.5164 40.335C18.2981 40.2255 19.5765 42.4241 19.7263 44.5381C19.8712 46.6273 17.7337 48.6966 15.6313 48.6717C13.2741 48.6369 11.4962 46.7666 11.4663 44.3591C11.4363 42.3047 12.8995 40.2156 15.5164 40.335Z" fill="white"/>
<path d="M53.0962 18.6178C53.3608 20.702 51.523 22.5126 49.2358 22.5524C47.0285 22.5922 44.8061 20.4682 44.891 18.2796C44.9809 16.0163 46.6439 14.2604 48.8762 14.2505C51.2883 14.2505 53.0962 16.1208 53.0962 18.6178Z" fill="url(#paint0_linear)"/>
<path d="M30.2888 55.3274C33.0805 55.2578 34.7485 57.2674 34.7185 59.5057C34.6835 61.7093 32.8507 63.4105 30.8382 63.4453C28.446 63.4901 26.2237 61.4954 26.3885 59.1526C26.5583 56.7898 27.8917 55.3324 30.2888 55.3274Z" fill="white"/>
<path d="M10.9666 33.6403C10.7519 31.2229 12.9143 29.4173 14.9768 29.4421C17.0793 29.467 19.0469 30.8797 19.007 33.5259C18.967 36.3314 17.0144 37.7639 14.8719 37.7788C13.0391 37.7987 10.637 36.1125 10.9666 33.6403Z" fill="url(#paint1_linear)"/>
<path d="M21.1099 57.8792C19.2521 57.9687 16.9249 55.9442 17.0497 53.4721C17.1596 51.2984 18.6278 49.6867 20.975 49.5773C23.2723 49.4728 25.4696 51.6863 25.3448 53.9247C25.2199 56.2029 23.2723 57.9538 21.1099 57.8792Z" fill="url(#paint2_linear)"/>
<path d="M37.1807 59.9637C37.0608 57.6855 39.3931 55.9246 41.3607 55.9545C43.7079 55.9943 45.5856 57.8496 45.5507 60.088C45.5157 62.3612 43.583 64.1072 41.121 64.0873C39.0285 64.0723 37.1657 62.1225 37.1807 59.9637Z" fill="url(#paint3_linear)"/>
<path d="M28.1613 13.1615C30.4786 12.878 32.1915 14.8925 32.2115 17.0314C32.2364 19.3643 29.9192 21.1898 27.8667 21.1351C25.7942 21.0804 23.8166 19.429 23.8515 17.0215C23.8865 14.7234 25.6094 13.1615 28.1613 13.1615Z" fill="url(#paint4_linear)"/>
<path d="M7.15655 42.0661C9.1941 42.1307 9.96318 43.6926 10.0581 45.2794C10.1529 46.8711 8.65974 48.3882 7.15155 48.2092C5.41864 48.0052 4.35491 47.3238 4.32495 44.8864C4.30497 43.23 5.51852 42.0511 7.15655 42.0661Z" fill="url(#paint5_linear)"/>
<path d="M54.9591 15.3305C53.4009 15.4399 51.7579 14.0173 51.6331 12.3162C51.5282 10.8488 53.0464 9.29683 54.4896 9.41124C56.3224 9.55549 57.7457 10.7294 57.7607 12.5947C57.7807 14.3058 56.3075 15.4797 54.9591 15.3305Z" fill="url(#paint6_linear)"/>
<path d="M57.8106 62.9929C57.8256 64.6742 56.3124 66.0321 54.4496 66.0122C52.9714 65.9973 51.638 64.6941 51.648 63.1869C51.658 61.6648 53.316 60.1576 54.8342 60.083C56.4123 60.0134 57.7956 61.436 57.8106 62.9929Z" fill="url(#paint7_linear)"/>
<path d="M41.006 9.97795C39.7225 10.0177 38.6838 9.60489 38.1244 8.37626C37.625 7.272 37.7699 6.24732 38.5489 5.29227C39.4379 4.19796 40.6164 4.29246 41.79 4.50138C43.0635 4.73019 43.7627 5.68026 43.9924 6.84919C44.2121 7.97833 43.6828 8.92342 42.7539 9.61981C42.2245 10.0078 41.6152 9.97795 41.006 9.97795Z" fill="white"/>
<path d="M14.1983 14.4449C15.9861 14.4449 17.0199 15.4497 17.0049 17.1807C16.9899 18.8869 15.5866 20.1851 13.8387 20.2647C12.1508 20.3393 10.9722 18.7376 10.9722 17.5587C10.9772 15.8924 12.5902 14.1763 14.1983 14.4449Z" fill="url(#paint8_linear)"/>
<path d="M26.5733 69.4491C24.7455 69.5486 23.1274 67.9469 23.1923 66.584C23.2822 64.7535 24.2411 63.6592 26.0089 63.6592C27.7618 63.6592 29.1901 64.9525 29.2301 66.574C29.265 68.1608 28.0864 69.4292 26.5733 69.4491Z" fill="url(#paint9_linear)"/>
<path d="M4.31493 30.6304C4.28497 28.3821 5.65832 27.4569 7.07162 27.3276C8.60477 27.1883 10.078 28.6507 10.093 30.1678C10.108 31.8093 8.54984 33.5751 7.06163 33.4309C5.68828 33.3016 4.30495 32.5753 4.31493 30.6304Z" fill="white"/>
<path d="M40.8412 71.1505C39.1832 71.1505 37.8299 69.892 37.8498 68.3003C37.8748 66.5643 39.1283 65.6142 40.991 65.4352C42.4743 65.2959 43.9475 66.818 43.9575 68.355C43.9724 70.0263 42.719 71.1505 40.8412 71.1505Z" fill="white"/>
<path d="M14.1881 61.1174C12.5052 61.1274 11.002 59.665 11.002 58.0185C10.997 56.5312 12.3703 55.1932 13.9284 55.1534C15.3817 55.1185 17.0047 56.7899 16.9848 58.3319C16.9698 59.5207 15.8611 61.2716 14.1881 61.1174Z" fill="white"/>
<path d="M23.2321 9.05787C23.2171 7.22738 24.3957 6.13306 26.4083 6.12311C28.0014 6.11316 29.1949 7.2622 29.2299 8.83901C29.2698 10.8486 27.5819 11.8235 26.1286 11.8384C24.5905 11.8484 23.1971 10.774 23.2321 9.05787Z" fill="url(#paint10_linear)"/>
<path d="M84.8232 35.3211H73.6167V16.3745H75.9838V33.222H84.8232V35.3211Z" fill="white"/>
<path d="M89.1329 19.6373C88.7533 19.6373 88.4187 19.503 88.1341 19.2244C87.8494 18.9508 87.7046 18.6126 87.7046 18.2147C87.7046 17.8167 87.8494 17.4735 88.1341 17.19C88.4187 16.9065 88.7533 16.7622 89.1329 16.7622C89.5324 16.7622 89.872 16.9065 90.1616 17.19C90.4463 17.4735 90.5911 17.8167 90.5911 18.2147C90.5911 18.6126 90.4463 18.9508 90.1616 19.2244C89.872 19.503 89.5324 19.6373 89.1329 19.6373ZM90.2166 35.3208H88.0791V21.5971H90.2166V35.3208Z" fill="white"/>
<path d="M99.74 35.6595C97.9172 35.6595 96.434 35.0079 95.3054 33.6997C94.1717 32.3915 93.6074 30.6406 93.6074 28.447C93.6074 26.2533 94.1717 24.5024 95.3054 23.2042C96.434 21.9059 97.9172 21.2593 99.74 21.2593C100.689 21.2593 101.573 21.4781 102.392 21.9109C103.211 22.3486 103.865 22.9256 104.359 23.6419V21.5975H106.497V40.5441H104.359V33.247C103.201 34.8587 101.663 35.6595 99.74 35.6595ZM100.254 33.7594C101.088 33.7594 101.892 33.5455 102.667 33.1177C103.436 32.6899 104 32.1676 104.364 31.5409V25.348C104.005 24.7412 103.436 24.2239 102.667 23.8011C101.897 23.3733 101.093 23.1594 100.254 23.1594C98.906 23.1594 97.8323 23.6519 97.0433 24.6367C96.2542 25.6216 95.8597 26.89 95.8597 28.442C95.8597 29.9939 96.2542 31.2673 97.0433 32.2621C97.8323 33.262 98.906 33.7594 100.254 33.7594Z" fill="white"/>
<path d="M122.243 35.3209H120.106V33.3909C119.537 34.0326 118.817 34.5748 117.954 35.0125C117.09 35.4502 116.171 35.6641 115.202 35.6641C112.275 35.6641 110.807 34.2067 110.807 31.2869V21.5972H112.945V30.6303C112.945 31.7694 113.204 32.5702 113.729 33.0427C114.253 33.5153 115.017 33.7541 116.026 33.7541C116.825 33.7541 117.599 33.5551 118.348 33.1572C119.097 32.7592 119.681 32.2668 120.101 31.6798V21.5972H122.238V35.3209H122.243Z" fill="white"/>
<path d="M127.577 19.6373C127.197 19.6373 126.863 19.503 126.578 19.2244C126.293 18.9508 126.148 18.6126 126.148 18.2147C126.148 17.8167 126.293 17.4735 126.578 17.19C126.863 16.9065 127.197 16.7622 127.577 16.7622C127.976 16.7622 128.321 16.9065 128.605 17.19C128.89 17.4735 129.035 17.8167 129.035 18.2147C129.035 18.6126 128.89 18.9508 128.605 19.2244C128.316 19.503 127.976 19.6373 127.577 19.6373ZM128.66 35.3208H126.523V21.5971H128.66V35.3208Z" fill="white"/>
<path d="M145.061 35.3211H142.923V33.2768C141.745 34.8685 140.196 35.6644 138.274 35.6644C136.451 35.6644 134.968 35.0177 133.839 33.7195C132.71 32.4212 132.141 30.6753 132.141 28.4767C132.141 26.298 132.705 24.5521 133.839 23.2339C134.968 21.9157 136.451 21.2592 138.274 21.2592C140.176 21.2592 141.725 22.065 142.923 23.6716V16.3745H145.061V35.3211ZM138.783 33.7593C139.617 33.7593 140.416 33.5503 141.18 33.1325C141.939 32.7147 142.519 32.2073 142.918 31.6005V25.3778C142.519 24.751 141.934 24.2287 141.165 23.801C140.396 23.3732 139.602 23.1593 138.783 23.1593C137.435 23.1593 136.361 23.6567 135.562 24.6515C134.763 25.6464 134.363 26.9198 134.363 28.4717C134.363 30.0237 134.763 31.2921 135.562 32.277C136.361 33.2668 137.435 33.7593 138.783 33.7593Z" fill="white"/>
<path d="M82.6309 60.2667C79.8542 60.2667 77.532 59.3514 75.6593 57.5259C73.7865 55.7004 72.8477 53.3476 72.8477 50.4676C72.8477 47.5875 73.7865 45.2347 75.6593 43.4092C77.532 41.5837 79.8542 40.6685 82.6309 40.6685C85.6722 40.6685 88.0793 41.917 89.8472 44.419L87.8496 45.5282C87.2953 44.7125 86.5562 44.0509 85.6273 43.5386C84.6934 43.0262 83.6996 42.7725 82.6309 42.7725C80.5384 42.7725 78.7955 43.4988 77.3972 44.9462C75.9989 46.3937 75.2997 48.2391 75.2997 50.4725C75.2997 52.7059 75.9989 54.5514 77.3972 55.9988C78.7955 57.4463 80.5384 58.1726 82.6309 58.1726C83.6946 58.1726 84.6934 57.9238 85.6273 57.4215C86.5562 56.9191 87.3003 56.2525 87.8496 55.4169L89.8722 56.5261C88.0294 59.0182 85.6123 60.2667 82.6309 60.2667Z" fill="white"/>
<path d="M94.9514 59.9283H92.814V46.2045H94.9514V48.418C96.2249 46.7517 97.758 45.916 99.5409 45.916V48.1047C99.2762 48.0499 98.9915 48.0201 98.6869 48.0201C98.0427 48.0201 97.3385 48.2489 96.5744 48.7016C95.8154 49.1542 95.271 49.6566 94.9464 50.2087V59.9283H94.9514Z" fill="white"/>
<path d="M101.453 65.2954L101.798 63.3654C102.142 63.5146 102.527 63.5942 102.966 63.5942C103.461 63.5942 103.87 63.4898 104.195 63.2808C104.52 63.0719 104.794 62.6939 105.024 62.1467L105.938 60.0725L100.175 46.2095H102.487L107.077 57.4611L111.641 46.2095H113.978L107.077 62.7138C106.317 64.5294 104.964 65.4595 103.026 65.4993C102.452 65.4943 101.928 65.4297 101.453 65.2954Z" fill="white"/>
<path d="M122.982 60.2665C121.044 60.2665 119.491 59.4606 118.333 57.854V65.1561H116.195V46.2045H118.333V48.2488C118.847 47.5276 119.511 46.9506 120.33 46.5178C121.149 46.0801 122.033 45.8662 122.982 45.8662C124.805 45.8662 126.283 46.5129 127.417 47.8111C128.545 49.1094 129.115 50.8553 129.115 53.0539C129.115 55.2525 128.55 57.0034 127.417 58.3066C126.288 59.6148 124.81 60.2665 122.982 60.2665ZM122.443 58.3663C123.791 58.3663 124.865 57.8689 125.664 56.8741C126.463 55.8792 126.862 54.6058 126.862 53.0539C126.862 51.502 126.463 50.2335 125.664 49.2487C124.865 48.2638 123.791 47.7713 122.443 47.7713C121.624 47.7713 120.83 47.9852 120.061 48.413C119.292 48.8408 118.717 49.3531 118.338 49.96V56.1528C118.717 56.7796 119.292 57.3018 120.061 57.7296C120.83 58.1524 121.624 58.3663 122.443 58.3663Z" fill="white"/>
<path d="M135.992 60.2666C134.983 60.2666 134.224 59.9931 133.71 59.4409C133.195 58.8938 132.94 58.0979 132.94 57.0533V48.0799H130.658V46.2046H132.94V42.4541H135.078V46.2046H137.875V48.0799H135.078V56.6007C135.078 57.1329 135.198 57.5557 135.432 57.879C135.672 58.2024 136.017 58.3615 136.476 58.3615C137.105 58.3615 137.59 58.1725 137.929 57.7945L138.559 59.3862C137.929 59.9732 137.075 60.2666 135.992 60.2666Z" fill="white"/>
<path d="M151.863 58.1923C150.619 59.5751 148.966 60.2665 146.913 60.2665C144.861 60.2665 143.208 59.5751 141.964 58.1923C140.721 56.8095 140.097 55.0984 140.097 53.049C140.097 51.0046 140.721 49.2935 141.964 47.9206C143.208 46.5478 144.861 45.8613 146.913 45.8613C148.966 45.8613 150.614 46.5478 151.863 47.9206C153.106 49.2935 153.73 51.0046 153.73 53.049C153.73 55.0984 153.106 56.8095 151.863 58.1923ZM143.563 56.8145C144.392 57.8491 145.505 58.3614 146.913 58.3614C148.322 58.3614 149.43 57.8441 150.249 56.8145C151.068 55.7798 151.478 54.5263 151.478 53.049C151.478 51.5717 151.068 50.3232 150.249 49.2985C149.43 48.2738 148.322 47.7664 146.913 47.7664C145.505 47.7664 144.392 48.2838 143.563 49.3134C142.734 50.3431 142.324 51.5916 142.324 53.049C142.319 54.5313 142.734 55.7848 143.563 56.8145Z" fill="white"/>
<path d="M32.2315 48.1547C30.7133 48.1547 29.4248 46.8764 29.4248 45.3592C29.4248 45.3592 29.4248 32.7547 29.4248 32.5557V30.1632C29.4248 28.6411 30.6833 27.3975 32.2315 27.3975H33.44C33.4899 27.3975 33.5399 27.4075 33.5848 27.4174H50.105C47.1835 23.8957 42.7638 21.6523 37.8197 21.6523C29.0153 21.6523 21.8789 28.7604 21.8789 37.5299C21.8789 46.2994 29.0153 53.4075 37.8197 53.4075C42.4841 53.4075 46.6841 51.4078 49.6006 48.2244C46.3595 48.2094 32.2315 48.1547 32.2315 48.1547Z" fill="white"/>
<path d="M53.161 33.4561C52.7215 32.1778 52.0623 30.9492 51.4331 29.7653C51.3731 29.6559 51.3132 29.5464 51.2533 29.437C51.0985 29.1535 50.9337 28.8749 50.7639 28.6014C50.7089 28.5118 50.3993 27.9149 50.2994 27.9149H33.4397V27.895H32.2262C30.9527 27.895 29.9189 28.9296 29.9189 30.1632V33.4462V45.3593C29.9189 46.5929 30.9577 47.6574 32.2262 47.6574L50.2595 47.732C50.3943 47.732 50.8188 46.9958 50.9037 46.8765C51.1184 46.573 51.3232 46.2597 51.513 45.9413C51.9025 45.2996 52.2421 44.6331 52.5367 43.9417C53.136 42.534 53.5255 41.0368 53.6953 39.5197C53.8801 37.8483 53.8452 36.1372 53.4606 34.4908C53.3857 34.1426 53.2808 33.7994 53.161 33.4561Z" fill="url(#paint11_linear)"/>
<path d="M31.8518 40.5055C31.8767 40.5204 31.8967 40.5403 31.9117 40.5652C31.9267 40.5901 31.9317 40.6199 31.9317 40.6547C31.9317 40.6995 31.9217 40.7343 31.9017 40.7641C31.8817 40.794 31.8568 40.8189 31.8218 40.8338C31.7868 40.8487 31.7519 40.8537 31.7119 40.8537C31.662 40.8537 31.617 40.8437 31.5821 40.8288C31.5471 40.8139 31.5172 40.784 31.4922 40.7443L31.622 40.6696C31.627 40.6945 31.637 40.7144 31.652 40.7244C31.667 40.7393 31.687 40.7443 31.7169 40.7443C31.7419 40.7443 31.7669 40.7393 31.7818 40.7244C31.7968 40.7094 31.8068 40.6895 31.8068 40.6647C31.8068 40.6398 31.7968 40.6199 31.7868 40.605C31.7719 40.59 31.7519 40.5851 31.7219 40.5851C31.682 40.5851 31.652 40.595 31.632 40.6199L31.5222 40.605L31.5571 40.2866H31.9117V40.401H31.667L31.652 40.5055C31.652 40.5154 31.647 40.5204 31.647 40.5254C31.657 40.5105 31.672 40.5055 31.6969 40.4955C31.7169 40.4906 31.7419 40.4856 31.7669 40.4856C31.7968 40.4856 31.8268 40.4906 31.8518 40.5055Z" fill="white"/>
<path d="M32.496 40.7229H32.4111V40.8472H32.2812V40.7229H31.9966V40.6532L32.2363 40.2852H32.4061V40.6234H32.491V40.7229H32.496ZM32.1314 40.6184H32.2762V40.4692L32.2812 40.3797C32.2713 40.4045 32.2563 40.4344 32.2313 40.4692L32.1314 40.6184Z" fill="white"/>
<path d="M32.9256 40.3152C32.9605 40.345 32.9805 40.3798 32.9805 40.4296C32.9805 40.4594 32.9755 40.4843 32.9605 40.5042C32.9505 40.5241 32.9355 40.539 32.9156 40.549C32.9006 40.5589 32.8856 40.5639 32.8706 40.5639V40.5689C32.8856 40.5689 32.9056 40.5738 32.9206 40.5788C32.9405 40.5888 32.9555 40.5987 32.9655 40.6186C32.9805 40.6385 32.9855 40.6634 32.9855 40.6932C32.9855 40.7231 32.9755 40.7529 32.9555 40.7778C32.9355 40.8027 32.9106 40.8225 32.8756 40.8325C32.8407 40.8474 32.8057 40.8524 32.7607 40.8524C32.7008 40.8524 32.6509 40.8424 32.6159 40.8176C32.581 40.7977 32.556 40.7579 32.541 40.7131L32.6759 40.6584C32.6808 40.6882 32.6858 40.7081 32.7008 40.7231C32.7158 40.738 32.7358 40.743 32.7607 40.743C32.7857 40.743 32.8057 40.738 32.8207 40.7231C32.8357 40.7131 32.8407 40.6932 32.8407 40.6733C32.8407 40.6534 32.8357 40.6335 32.8207 40.6236C32.8057 40.6136 32.7857 40.6087 32.7558 40.6087H32.7258V40.5141H32.7508C32.7757 40.5141 32.7957 40.5092 32.8107 40.4992C32.8257 40.4893 32.8307 40.4694 32.8307 40.4495C32.8307 40.4296 32.8257 40.4147 32.8107 40.4047C32.8007 40.3948 32.7807 40.3898 32.7607 40.3898C32.7108 40.3898 32.6858 40.4147 32.6808 40.4644L32.551 40.4196C32.561 40.3699 32.586 40.3351 32.6209 40.3102C32.6609 40.2853 32.7058 40.2754 32.7657 40.2754C32.8407 40.2754 32.8856 40.2903 32.9256 40.3152Z" fill="white"/>
<path d="M33.0805 40.7529C33.1754 40.6932 33.2453 40.6435 33.2853 40.5937C33.3252 40.549 33.3502 40.5042 33.3502 40.4644C33.3502 40.4395 33.3452 40.4246 33.3302 40.4097C33.3152 40.3948 33.3003 40.3898 33.2753 40.3898C33.2503 40.3898 33.2253 40.3997 33.2104 40.4196C33.1954 40.4395 33.1854 40.4694 33.1854 40.5042L33.0605 40.4644C33.0605 40.4047 33.0805 40.355 33.1255 40.3251C33.1654 40.2903 33.2204 40.2754 33.2853 40.2754C33.3302 40.2754 33.3702 40.2853 33.4051 40.3003C33.4351 40.3152 33.4601 40.3401 33.475 40.3649C33.49 40.3898 33.5 40.4196 33.5 40.4545C33.5 40.5092 33.48 40.5539 33.4401 40.5987C33.4001 40.6435 33.3402 40.6882 33.2603 40.733C33.3003 40.733 33.3352 40.728 33.3752 40.728H33.51V40.8375H33.0855V40.7529H33.0805Z" fill="white"/>
<path d="M34.7833 35.1572H34.0042H33.6596H32.9655H32.6209H31.8418C31.5971 35.1572 31.4023 35.3562 31.4023 35.595V35.9531V36.2963V36.7141V37.0574V37.4155C31.4023 37.6592 31.6021 37.8532 31.8418 37.8532H32.6209H32.9655H33.6596H34.0042H34.7833C35.028 37.8532 35.2227 37.6543 35.2227 37.4155V37.0574V36.7092V36.2913V35.9481V35.59C35.2227 35.3512 35.028 35.1572 34.7833 35.1572Z" fill="#001534"/>
<path d="M31.9416 35.9781C31.9416 35.7493 32.1314 35.5603 32.3611 35.5603H32.7806V35.3364H31.8417C31.7019 35.3364 31.582 35.4508 31.582 35.5951V36.1124H31.9366V35.9781H31.9416Z" fill="url(#paint12_linear)"/>
<path d="M34.6832 37.0279C34.6832 37.2567 34.4935 37.4457 34.2637 37.4457H33.8442V37.6695H34.7831C34.9229 37.6695 35.0428 37.5551 35.0428 37.4109V36.8936H34.6882V37.0279H34.6832Z" fill="url(#paint13_linear)"/>
<path d="M32.3615 37.4457C32.1317 37.4457 31.942 37.2567 31.942 37.0279V36.8936H31.5874V37.4109C31.5874 37.5501 31.7023 37.6695 31.8471 37.6695H32.786V37.4457H32.3615Z" fill="url(#paint14_linear)"/>
<path d="M34.2638 35.5603C34.4936 35.5603 34.6833 35.7493 34.6833 35.9781V36.1124H35.0379V35.5951C35.0379 35.4558 34.9231 35.3364 34.7782 35.3364H33.8394V35.5603H34.2638Z" fill="url(#paint15_linear)"/>
<path d="M32.781 36.873V36.1318H31.952H31.5874V36.873H31.952H32.781Z" fill="url(#paint16_linear)"/>
<path d="M33.8442 36.1318V36.873H34.6732H35.0428V36.1318H34.6732H33.8442Z" fill="url(#paint17_linear)"/>
<path d="M32.8057 37.669H33.8244V37.4451L33.3151 36.8979L32.8057 37.4451V37.669Z" fill="url(#paint18_linear)"/>
<path d="M33.3151 36.1074L33.8244 35.5603V35.3364H32.8057V35.5603L33.3151 36.1074Z" fill="url(#paint19_linear)"/>
<path d="M32.3614 35.5801C32.1417 35.5801 31.9619 35.7591 31.9619 35.978V36.1123H32.7909C32.7959 36.1123 32.8009 36.1173 32.8009 36.1223V36.8833C32.8009 36.8883 32.7959 36.8933 32.7909 36.8933H31.9619V37.0276C31.9619 37.2464 32.1417 37.4255 32.3614 37.4255H32.7959L33.3053 36.8783C33.3103 36.8734 33.3153 36.8734 33.3203 36.8783L33.8297 37.4255H34.2641C34.4839 37.4255 34.6637 37.2464 34.6637 37.0276V36.8933H33.8347C33.8297 36.8933 33.8247 36.8883 33.8247 36.8833V36.1223C33.8247 36.1173 33.8297 36.1123 33.8347 36.1123H34.6637V35.978C34.6637 35.7591 34.4839 35.5801 34.2641 35.5801H33.8297L33.3203 36.1272C33.3203 36.1272 33.3153 36.1322 33.3103 36.1322C33.3053 36.1322 33.3053 36.1322 33.3003 36.1272L32.7909 35.5801H32.3614Z" fill="url(#paint20_linear)"/>
<path d="M33.3203 36.1318C33.3152 36.1369 33.3102 36.1369 33.3052 36.1318C33.3052 36.1318 33.3102 36.1369 33.3152 36.1369C33.3203 36.1369 33.3203 36.1318 33.3203 36.1318Z" fill="url(#paint21_linear)"/>
<path d="M31.602 38.9731C31.602 38.6746 31.8567 38.5503 32.1414 38.5503C32.431 38.5503 32.6757 38.6846 32.6757 38.9532C32.6757 39.2715 32.446 39.376 32.1364 39.376C32.0465 39.376 31.9266 39.3909 31.9266 39.5401H32.6657V39.8485H31.582V39.5501C31.582 39.1721 31.8717 39.0925 32.1364 39.0925C32.2063 39.0925 32.3161 39.0626 32.3161 38.9582C32.3161 38.8686 32.2313 38.8338 32.1414 38.8338C32.0365 38.8338 31.9666 38.8736 31.9566 38.9681H31.602V38.9731Z" fill="white"/>
<path d="M33.175 39.3253V39.0716H33.3898C33.4597 39.0716 33.5646 39.0567 33.5696 38.9671C33.5696 38.9025 33.4997 38.8478 33.3898 38.8478C33.2949 38.8478 33.2 38.8826 33.2 38.9721H32.8504C32.8554 38.6587 33.1351 38.5493 33.3898 38.5493C33.6395 38.5493 33.9341 38.6538 33.9341 38.9522C33.9341 39.0467 33.8692 39.1512 33.7643 39.2009C33.9142 39.2556 33.9641 39.3651 33.9641 39.4845C33.9641 39.7829 33.6395 39.8824 33.3898 39.8824C33.1301 39.8824 32.8354 39.763 32.8354 39.4347H33.19C33.19 39.5491 33.2999 39.5889 33.4048 39.5889C33.4947 39.5889 33.5846 39.5441 33.5846 39.4646C33.5846 39.4297 33.5746 39.3352 33.4048 39.3352H33.175V39.3253Z" fill="white"/>
<path d="M34.1289 39.1312C34.1289 38.7134 34.3986 38.5542 34.7132 38.5542C35.0328 38.5542 35.2925 38.7283 35.2925 39.1312V39.3053C35.2925 39.7132 35.0278 39.8873 34.7182 39.8873C34.4136 39.8873 34.1289 39.7281 34.1289 39.3103V39.1312ZM34.4885 39.3053C34.4885 39.4993 34.5834 39.5888 34.7132 39.5888C34.8431 39.5888 34.9429 39.5043 34.9429 39.3053V39.1312C34.9429 38.9422 34.848 38.8576 34.7182 38.8576C34.5933 38.8576 34.4885 38.9372 34.4885 39.1312V39.3053Z" fill="white"/>
<path d="M36.2315 38.9374C36.2265 38.8628 36.1416 38.828 36.0368 38.828C35.9369 38.828 35.837 38.8827 35.837 38.9822V39.1015C35.9119 39.0468 36.0318 39.012 36.1366 39.012C36.4063 39.012 36.6111 39.1563 36.6111 39.4249C36.6111 39.7382 36.3364 39.8676 36.0517 39.8676C35.7721 39.8676 35.4824 39.7382 35.4824 39.4249V38.9822C35.4824 38.6787 35.7571 38.5444 36.0368 38.5444C36.3264 38.5444 36.5761 38.6389 36.5761 38.9374H36.2315ZM36.2465 39.4298C36.2465 39.3304 36.1666 39.2756 36.0517 39.2756C35.9119 39.2756 35.842 39.3453 35.842 39.4298C35.842 39.5045 35.9119 39.5741 36.0517 39.5741C36.1616 39.5741 36.2465 39.5194 36.2465 39.4298Z" fill="white"/>
<path d="M37.1855 39.1312C37.1855 38.7134 37.4552 38.5542 37.7698 38.5542C38.0895 38.5542 38.3491 38.7283 38.3491 39.1312V39.3053C38.3491 39.7132 38.0845 39.8873 37.7748 39.8873C37.4702 39.8873 37.1855 39.7281 37.1855 39.3103V39.1312ZM37.5401 39.3053C37.5401 39.4993 37.635 39.5888 37.7649 39.5888C37.8947 39.5888 37.9946 39.5043 37.9946 39.3053V39.1312C37.9946 38.9422 37.8997 38.8576 37.7698 38.8576C37.645 38.8576 37.5401 38.9372 37.5401 39.1312V39.3053Z" fill="white"/>
<path d="M38.524 39.5741H38.7288V38.9672L38.534 39.022V38.7384L39.0684 38.5444V39.5741H39.2582V39.8477H38.519V39.5741H38.524Z" fill="white"/>
<path d="M39.3926 39.1312C39.3926 38.7134 39.6623 38.5542 39.9769 38.5542C40.2965 38.5542 40.5562 38.7283 40.5562 39.1312V39.3053C40.5562 39.7132 40.2915 39.8873 39.9819 39.8873C39.6772 39.8873 39.3926 39.7281 39.3926 39.3103V39.1312ZM39.7521 39.3053C39.7521 39.4993 39.847 39.5888 39.9769 39.5888C40.1067 39.5888 40.2066 39.5043 40.2066 39.3053V39.1312C40.2066 38.9422 40.1117 38.8576 39.9819 38.8576C39.857 38.8576 39.7521 38.9372 39.7521 39.1312V39.3053Z" fill="white"/>
<path d="M41.7346 38.8628H41.0954V39.017H41.2702C41.5549 39.017 41.8095 39.0916 41.8046 39.4398C41.8046 39.7532 41.5199 39.8676 41.2752 39.8676C40.9706 39.8676 40.7408 39.7482 40.7358 39.4249H41.0904C41.0904 39.5343 41.1903 39.5741 41.2702 39.5741C41.3251 39.5741 41.45 39.5542 41.45 39.4398C41.45 39.3155 41.3351 39.3005 41.2702 39.3005H40.7608V38.5693H41.7396V38.8628H41.7346Z" fill="white"/>
<path d="M42.394 38.9721C42.394 38.6737 42.6487 38.5493 42.9334 38.5493C43.223 38.5493 43.4677 38.6836 43.4677 38.9522C43.4677 39.2706 43.238 39.375 42.9284 39.375C42.8385 39.375 42.7186 39.3899 42.7186 39.5392H43.4577V39.8476H42.374V39.5491C42.374 39.1711 42.6637 39.0915 42.9284 39.0915C42.9983 39.0915 43.1081 39.0617 43.1081 38.9572C43.1081 38.8677 43.0232 38.8328 42.9334 38.8328C42.8285 38.8328 42.7586 38.8726 42.7486 38.9671H42.394V38.9721Z" fill="white"/>
<path d="M43.8027 39.1861C43.7128 39.1214 43.6728 39.0319 43.6728 38.9324C43.6728 38.6738 43.9026 38.5444 44.2022 38.5444C44.5068 38.5444 44.7665 38.6738 44.7665 38.9324C44.7665 39.0319 44.7216 39.1214 44.6317 39.1762C44.7665 39.2508 44.7965 39.3851 44.8015 39.4547C44.8065 39.7681 44.5518 39.8825 44.2172 39.8825C43.8826 39.8825 43.6279 39.7731 43.6329 39.4547C43.6379 39.3801 43.6828 39.2458 43.8027 39.1861ZM44.0124 39.4497C44.0124 39.5393 44.1073 39.584 44.2222 39.584C44.3271 39.584 44.4319 39.5442 44.4269 39.4497C44.4269 39.3701 44.352 39.3105 44.2222 39.3105C44.0973 39.3154 44.0124 39.3652 44.0124 39.4497ZM44.2122 38.813C43.9775 38.813 43.9775 39.0767 44.2122 39.0767C44.4469 39.0767 44.4519 38.813 44.2122 38.813Z" fill="white"/>
<path d="M44.9707 39.1312C44.9707 38.7134 45.2404 38.5542 45.555 38.5542C45.8746 38.5542 46.1343 38.7283 46.1343 39.1312V39.3053C46.1343 39.7132 45.8696 39.8873 45.56 39.8873C45.2554 39.8873 44.9707 39.7281 44.9707 39.3103V39.1312ZM45.3253 39.3053C45.3253 39.4993 45.4202 39.5888 45.55 39.5888C45.6798 39.5888 45.7797 39.5043 45.7797 39.3053V39.1312C45.7797 38.9422 45.6848 38.8576 45.555 38.8576C45.4301 38.8576 45.3253 38.9372 45.3253 39.1312V39.3053Z" fill="white"/>
<path d="M46.659 39.4746C46.664 39.5492 46.7489 39.584 46.8538 39.584C46.9536 39.584 47.0685 39.5293 47.0685 39.4199V39.3105C46.9786 39.3851 46.8737 39.4 46.7689 39.4C46.4992 39.4 46.2944 39.2557 46.2944 38.9871C46.2944 38.6738 46.5691 38.5444 46.8538 38.5444C47.1334 38.5444 47.4231 38.6738 47.4231 38.9871V39.4199C47.4231 39.7432 47.1384 39.8676 46.8538 39.8676C46.5641 39.8676 46.3094 39.7731 46.3094 39.4746H46.659ZM46.659 38.9871C46.659 39.0866 46.7389 39.1413 46.8538 39.1413C46.9936 39.1413 47.0635 39.0717 47.0635 38.9871C47.0635 38.9125 46.9936 38.8429 46.8538 38.8429C46.7439 38.8429 46.659 38.8926 46.659 38.9871Z" fill="white"/>
<path d="M48.027 39.5741H48.2317V38.9672L48.037 39.022V38.7384L48.5713 38.5444V39.5741H48.7611V39.8477H48.022V39.5741H48.027Z" fill="white"/>
<path d="M48.901 39.5741H49.1057V38.9672L48.911 39.022V38.7384L49.4453 38.5444V39.5741H49.6351V39.8477H48.896V39.5741H48.901Z" fill="white"/>
<path d="M49.77 39.1312C49.77 38.7134 50.0397 38.5542 50.3543 38.5542C50.6739 38.5542 50.9336 38.7283 50.9336 39.1312V39.3053C50.9336 39.7132 50.6689 39.8873 50.3593 39.8873C50.0547 39.8873 49.77 39.7281 49.77 39.3103V39.1312ZM50.1296 39.3053C50.1296 39.4993 50.2245 39.5888 50.3543 39.5888C50.4842 39.5888 50.584 39.5043 50.584 39.3053V39.1312C50.584 38.9422 50.4891 38.8576 50.3593 38.8576C50.2345 38.8576 50.1296 38.9372 50.1296 39.1312V39.3053Z" fill="white"/>
<path d="M51.2734 39.1861C51.1835 39.1214 51.1435 39.0319 51.1435 38.9324C51.1435 38.6738 51.3733 38.5444 51.6729 38.5444C51.9775 38.5444 52.2372 38.6738 52.2372 38.9324C52.2372 39.0319 52.1923 39.1214 52.1024 39.1762C52.2372 39.2508 52.2672 39.3851 52.2722 39.4547C52.2772 39.7681 52.0225 39.8825 51.6879 39.8825C51.3533 39.8825 51.0986 39.7731 51.1036 39.4547C51.1036 39.3801 51.1485 39.2458 51.2734 39.1861ZM51.4781 39.4497C51.4781 39.5393 51.573 39.584 51.6879 39.584C51.7928 39.584 51.8976 39.5442 51.8926 39.4497C51.8926 39.3701 51.8177 39.3105 51.6879 39.3105C51.563 39.3154 51.4781 39.3652 51.4781 39.4497ZM51.6779 38.813C51.4432 38.813 51.4432 39.0767 51.6779 39.0767C51.9126 39.0767 51.9176 38.813 51.6779 38.813Z" fill="white"/>
<defs>
<linearGradient id="paint0_linear" x1="49.0027" y1="1.25522" x2="49.0027" y2="71.8412" gradientUnits="userSpaceOnUse">
<stop stop-color="#76F654"/>
<stop offset="0.4162" stop-color="#59BEA9"/>
<stop offset="0.6732" stop-color="#51AEC3"/>
<stop offset="0.9944" stop-color="#4392ED"/>
</linearGradient>
<linearGradient id="paint1_linear" x1="14.9715" y1="1.2558" x2="14.9715" y2="71.8417" gradientUnits="userSpaceOnUse">
<stop stop-color="#76F654"/>
<stop offset="0.4162" stop-color="#59BEA9"/>
<stop offset="0.6732" stop-color="#51AEC3"/>
<stop offset="0.9944" stop-color="#4392ED"/>
</linearGradient>
<linearGradient id="paint2_linear" x1="21.1958" y1="1.25541" x2="21.1958" y2="71.8415" gradientUnits="userSpaceOnUse">
<stop stop-color="#76F654"/>
<stop offset="0.4162" stop-color="#59BEA9"/>
<stop offset="0.6732" stop-color="#51AEC3"/>
<stop offset="0.9944" stop-color="#4392ED"/>
</linearGradient>
<linearGradient id="paint3_linear" x1="41.3627" y1="1.25567" x2="41.3627" y2="71.8418" gradientUnits="userSpaceOnUse">
<stop stop-color="#76F654"/>
<stop offset="0.4162" stop-color="#59BEA9"/>
<stop offset="0.6732" stop-color="#51AEC3"/>
<stop offset="0.9944" stop-color="#4392ED"/>
</linearGradient>
<linearGradient id="paint4_linear" x1="28.0326" y1="1.2556" x2="28.0326" y2="71.8416" gradientUnits="userSpaceOnUse">
<stop stop-color="#76F654"/>
<stop offset="0.4162" stop-color="#59BEA9"/>
<stop offset="0.6732" stop-color="#51AEC3"/>
<stop offset="0.9944" stop-color="#4392ED"/>
</linearGradient>
<linearGradient id="paint5_linear" x1="7.1928" y1="1.25519" x2="7.1928" y2="71.8413" gradientUnits="userSpaceOnUse">
<stop stop-color="#76F654"/>
<stop offset="0.4162" stop-color="#59BEA9"/>
<stop offset="0.6732" stop-color="#51AEC3"/>
<stop offset="0.9944" stop-color="#4392ED"/>
</linearGradient>
<linearGradient id="paint6_linear" x1="54.6973" y1="1.25583" x2="54.6973" y2="71.8419" gradientUnits="userSpaceOnUse">
<stop stop-color="#76F654"/>
<stop offset="0.4162" stop-color="#59BEA9"/>
<stop offset="0.6732" stop-color="#51AEC3"/>
<stop offset="0.9944" stop-color="#4392ED"/>
</linearGradient>
<linearGradient id="paint7_linear" x1="54.7292" y1="1.25572" x2="54.7292" y2="71.8418" gradientUnits="userSpaceOnUse">
<stop stop-color="#76F654"/>
<stop offset="0.4162" stop-color="#59BEA9"/>
<stop offset="0.6732" stop-color="#51AEC3"/>
<stop offset="0.9944" stop-color="#4392ED"/>
</linearGradient>
<linearGradient id="paint8_linear" x1="13.9889" y1="1.25567" x2="13.9889" y2="71.8416" gradientUnits="userSpaceOnUse">
<stop stop-color="#76F654"/>
<stop offset="0.4162" stop-color="#59BEA9"/>
<stop offset="0.6732" stop-color="#51AEC3"/>
<stop offset="0.9944" stop-color="#4392ED"/>
</linearGradient>
<linearGradient id="paint9_linear" x1="26.21" y1="1.25562" x2="26.21" y2="71.8415" gradientUnits="userSpaceOnUse">
<stop stop-color="#76F654"/>
<stop offset="0.4162" stop-color="#59BEA9"/>
<stop offset="0.6732" stop-color="#51AEC3"/>
<stop offset="0.9944" stop-color="#4392ED"/>
</linearGradient>
<linearGradient id="paint10_linear" x1="26.229" y1="1.25563" x2="26.229" y2="71.8417" gradientUnits="userSpaceOnUse">
<stop stop-color="#76F654"/>
<stop offset="0.4162" stop-color="#59BEA9"/>
<stop offset="0.6732" stop-color="#51AEC3"/>
<stop offset="0.9944" stop-color="#4392ED"/>
</linearGradient>
<linearGradient id="paint11_linear" x1="41.9314" y1="29.2599" x2="41.6959" y2="46.5169" gradientUnits="userSpaceOnUse">
<stop stop-color="#76F654"/>
<stop offset="0.4162" stop-color="#59BEA9"/>
<stop offset="0.6732" stop-color="#51AEC3"/>
<stop offset="0.9944" stop-color="#4392ED"/>
</linearGradient>
<linearGradient id="paint12_linear" x1="32.1842" y1="35.727" x2="32.2021" y2="36.8285" gradientUnits="userSpaceOnUse">
<stop stop-color="#76F654"/>
<stop offset="0.4162" stop-color="#59BEA9"/>
<stop offset="0.6732" stop-color="#51AEC3"/>
<stop offset="0.9944" stop-color="#4392ED"/>
</linearGradient>
<linearGradient id="paint13_linear" x1="34.4163" y1="35.6907" x2="34.4342" y2="36.7923" gradientUnits="userSpaceOnUse">
<stop stop-color="#76F654"/>
<stop offset="0.4162" stop-color="#59BEA9"/>
<stop offset="0.6732" stop-color="#51AEC3"/>
<stop offset="0.9944" stop-color="#4392ED"/>
</linearGradient>
<linearGradient id="paint14_linear" x1="32.1565" y1="35.7277" x2="32.1745" y2="36.8292" gradientUnits="userSpaceOnUse">
<stop stop-color="#76F654"/>
<stop offset="0.4162" stop-color="#59BEA9"/>
<stop offset="0.6732" stop-color="#51AEC3"/>
<stop offset="0.9944" stop-color="#4392ED"/>
</linearGradient>
<linearGradient id="paint15_linear" x1="34.4444" y1="35.6901" x2="34.4624" y2="36.7916" gradientUnits="userSpaceOnUse">
<stop stop-color="#76F654"/>
<stop offset="0.4162" stop-color="#59BEA9"/>
<stop offset="0.6732" stop-color="#51AEC3"/>
<stop offset="0.9944" stop-color="#4392ED"/>
</linearGradient>
<linearGradient id="paint16_linear" x1="32.1718" y1="35.7267" x2="32.1897" y2="36.8283" gradientUnits="userSpaceOnUse">
<stop stop-color="#76F654"/>
<stop offset="0.4162" stop-color="#59BEA9"/>
<stop offset="0.6732" stop-color="#51AEC3"/>
<stop offset="0.9944" stop-color="#4392ED"/>
</linearGradient>
<linearGradient id="paint17_linear" x1="34.429" y1="35.6899" x2="34.447" y2="36.7914" gradientUnits="userSpaceOnUse">
<stop stop-color="#76F654"/>
<stop offset="0.4162" stop-color="#59BEA9"/>
<stop offset="0.6732" stop-color="#51AEC3"/>
<stop offset="0.9944" stop-color="#4392ED"/>
</linearGradient>
<linearGradient id="paint18_linear" x1="33.283" y1="35.7087" x2="33.301" y2="36.8102" gradientUnits="userSpaceOnUse">
<stop stop-color="#76F654"/>
<stop offset="0.4162" stop-color="#59BEA9"/>
<stop offset="0.6732" stop-color="#51AEC3"/>
<stop offset="0.9944" stop-color="#4392ED"/>
</linearGradient>
<linearGradient id="paint19_linear" x1="33.3176" y1="35.7085" x2="33.3356" y2="36.81" gradientUnits="userSpaceOnUse">
<stop stop-color="#76F654"/>
<stop offset="0.4162" stop-color="#59BEA9"/>
<stop offset="0.6732" stop-color="#51AEC3"/>
<stop offset="0.9944" stop-color="#4392ED"/>
</linearGradient>
<linearGradient id="paint20_linear" x1="33.3006" y1="35.7087" x2="33.3185" y2="36.8102" gradientUnits="userSpaceOnUse">
<stop stop-color="#76F654"/>
<stop offset="0.4162" stop-color="#59BEA9"/>
<stop offset="0.6732" stop-color="#51AEC3"/>
<stop offset="0.9944" stop-color="#4392ED"/>
</linearGradient>
<linearGradient id="paint21_linear" x1="31.5695" y1="36.1316" x2="35.4034" y2="36.1316" gradientUnits="userSpaceOnUse">
<stop stop-color="#F4E8D9"/>
<stop offset="0.2807" stop-color="#C08329"/>
<stop offset="0.5351" stop-color="#EBCC85"/>
<stop offset="0.547" stop-color="#EDD089"/>
<stop offset="0.7524" stop-color="#F4E8D9"/>
<stop offset="1" stop-color="#C08329"/>
</linearGradient>
</defs>
</svg>
